<svg aria-hidden="true" data-prefix="fas" data-icon="align-left" role="img" xmlns="http://www.w3.org/2000/svg" viewBox="0 0 448 512" 
   width="10%" 
   height="10%"
   preserveAspectRatio="x200Y200 meet"><path fill="currentColor" d="M288 44v40c0 8.837-7.163 16-16 16H16c-8.837 0-16-7.163-16-16V44c0-8.837 7.163-16 16-16h256c8.837 0 16 7.163 16 16zM0 172v40c0 8.837 7.163 16 16 16h416c8.837 0 16-7.163 16-16v-40c0-8.837-7.163-16-16-16H16c-8.837 0-16 7.163-16 16zm16 312h416c8.837 0 16-7.163 16-16v-40c0-8.837-7.163-16-16-16H16c-8.837 0-16 7.163-16 16v40c0 8.837 7.163 16 16 16zm256-200H16c-8.837 0-16 7.163-16 16v40c0 8.837 7.163 16 16 16h256c8.837 0 16-7.163 16-16v-40c0-8.837-7.163-16-16-16z"></path></svg>