<svg width="148" height="148" xmlns="http://www.w3.org/2000/svg" preserveAspectRatio="x200Y200 meet">

 <g>
  <title>background</title>
  <rect fill="none" id="canvas_background" height="150" width="150" y="-1" x="-1"/>
 </g>
 <g>
  <title>Layer 1</title>
  <path stroke="null" id="svg_1" d="m92.142855,10.785714l0,11.964285c0,2.64321 -2.142504,4.785714 -4.785714,4.785714l-76.571426,0c-2.64321,0 -4.785714,-2.142504 -4.785714,-4.785714l0,-11.964285c0,-2.64321 2.142504,-4.785714 4.785714,-4.785714l76.571426,0c2.64321,0 4.785714,2.142504 4.785714,4.785714zm-86.142855,38.285713l0,11.964285c0,2.64321 2.142504,4.785714 4.785714,4.785714l124.428568,0c2.64321,0 4.785714,-2.142504 4.785714,-4.785714l0,-11.964285c0,-2.64321 -2.142504,-4.785714 -4.785714,-4.785714l-124.428568,0c-2.64321,0 -4.785714,2.142504 -4.785714,4.785714zm4.785714,93.321426l124.428568,0c2.64321,0 4.785714,-2.142504 4.785714,-4.785714l0,-11.964285c0,-2.64321 -2.142504,-4.785714 -4.785714,-4.785714l-124.428568,0c-2.64321,0 -4.785714,2.142504 -4.785714,4.785714l0,11.964285c0,2.64321 2.142504,4.785714 4.785714,4.785714zm76.571426,-59.821427l-76.571426,0c-2.64321,0 -4.785714,2.142504 -4.785714,4.785714l0,11.964285c0,2.64321 2.142504,4.785714 4.785714,4.785714l76.571426,0c2.64321,0 4.785714,-2.142504 4.785714,-4.785714l0,-11.964285c0,-2.64321 -2.142504,-4.785714 -4.785714,-4.785714z" fill="#000000"/>
 </g>
</svg>