<svg width="25" height="23" xmlns="http://www.w3.org/2000/svg" preserveAspectRatio="x200Y200 meet">
 <g>
  <title>background</title>
  <rect fill="none" id="canvas_background" height="25" width="27" y="-1" x="-1"/>
 </g>

 <g>
  <title>Layer 1</title>
  <path stroke="null" id="svg_1" d="m14.646264,0.883149l0,1.873694c0,0.413946 -0.335531,0.749477 -0.749477,0.749477l-11.991639,0c-0.413946,0 -0.749477,-0.335531 -0.749477,-0.749477l0,-1.873694c0,-0.413946 0.335531,-0.749477 0.749477,-0.749477l11.991639,0c0.413946,0 0.749477,0.335531 0.749477,0.749477zm-13.490593,5.99582l0,1.873693c0,0.413946 0.335531,0.749478 0.749477,0.749478l19.486413,0c0.413946,0 0.749478,-0.335533 0.749478,-0.749478l0,-1.873693c0,-0.413946 -0.335533,-0.749478 -0.749478,-0.749478l-19.486413,0c-0.413946,0 -0.749477,0.335533 -0.749477,0.749478zm0.749477,14.614809l19.486413,0c0.413946,0 0.749478,-0.335531 0.749478,-0.749477l0,-1.873694c0,-0.413946 -0.335533,-0.749477 -0.749478,-0.749477l-19.486413,0c-0.413946,0 -0.749477,0.335531 -0.749477,0.749477l0,1.873694c0,0.413946 0.335531,0.749477 0.749477,0.749477zm11.991639,-9.368467l-11.991639,0c-0.413946,0 -0.749477,0.335531 -0.749477,0.749477l0,1.873694c0,0.413946 0.335531,0.749477 0.749477,0.749477l11.991639,0c0.413946,0 0.749477,-0.335531 0.749477,-0.749477l0,-1.873694c0,-0.413946 -0.335531,-0.749477 -0.749477,-0.749477z" fill="#ffffff"/>
 </g>
</svg>